<svg width="163" height="91" viewBox="0 0 163 91" fill="none" xmlns="http://www.w3.org/2000/svg">
<rect width="163" height="91" fill="#F5F5F5"/>
<circle cx="40" cy="50" r="40" fill="#C13030"/>
<rect x="54.8452" y="6.23858" width="23.679" height="85.6932" transform="rotate(-12.9073 54.8452 6.23858)" fill="#239F21"/>
<path d="M116.5 10L162.832 90.25H70.1676L116.5 10Z" fill="#5CB3D8"/>
<path d="M18.2513 63V40.4555H21.5041L37.092 58.9098L36.7055 59.1996C36.5982 58.6199 36.5123 57.9973 36.4479 57.3317C36.3835 56.6446 36.3191 55.9361 36.2547 55.206C36.2117 54.4546 36.1688 53.6816 36.1258 52.8872C36.1044 52.0713 36.0829 51.2446 36.0614 50.4073C36.0614 49.5699 36.0614 48.7218 36.0614 47.863V40.4555H39.5397V63H36.2225L20.86 45.222L21.0854 44.7711C21.1498 45.7159 21.2142 46.5747 21.2787 47.3477C21.3431 48.0991 21.4075 48.7862 21.4719 49.4089C21.5363 50.0315 21.5793 50.6005 21.6007 51.1158C21.6437 51.6097 21.6759 52.0713 21.6973 52.5007C21.7188 52.9086 21.7295 53.2844 21.7295 53.6279V63H18.2513ZM48.0045 63V40.4555H64.0111V43.805H51.4828V59.6505H64.0111V63H48.0045ZM49.7114 53.1126V49.7631H62.2397V53.1126H49.7114Z" fill="#5CB3D8"/>
<path d="M76.8061 63L69.1732 40.4555H72.9413L77.4502 54.2076C77.6005 54.6156 77.7401 55.0665 77.8689 55.5603C77.9977 56.0327 78.1158 56.5265 78.2232 57.0418C78.352 57.5356 78.4701 58.008 78.5775 58.4589C78.6848 58.9098 78.7814 59.2963 78.8673 59.6183L77.7401 59.5861C78.0192 58.6629 78.2661 57.8792 78.4808 57.235C78.717 56.5909 78.921 56.0219 79.0928 55.5281C79.286 55.0343 79.4578 54.5941 79.6081 54.2076L83.7305 44.3525H86.9189L90.9125 54.1754C91.1487 54.7122 91.3742 55.2812 91.5889 55.8824C91.8036 56.4621 91.9968 57.0418 92.1686 57.6215C92.3618 58.1798 92.5229 58.738 92.6517 59.2963L91.6533 59.5217C91.7606 59.0279 91.8465 58.6092 91.9109 58.2657C91.9968 57.9006 92.072 57.5678 92.1364 57.2673C92.2223 56.9452 92.3081 56.6339 92.394 56.3333C92.4799 56.0327 92.5873 55.6999 92.7161 55.3349C92.8449 54.9699 92.9845 54.5512 93.1348 54.0788L97.8369 40.4555H101.573L93.5535 63H91.138L84.9543 48.4749L85.373 48.6037L79.286 63H76.8061Z" fill="#C13030"/>
<path d="M115.467 63.3221C114.071 63.3221 112.783 63.161 111.602 62.839C110.442 62.5169 109.38 62.0338 108.413 61.3897C107.469 60.7241 106.61 59.9082 105.837 58.942L108.156 56.14C109.337 57.6215 110.507 58.6736 111.666 59.2963C112.826 59.8974 114.168 60.198 115.692 60.198C116.615 60.198 117.485 60.0692 118.301 59.8116C119.117 59.5539 119.772 59.1782 120.265 58.6843C120.759 58.1905 121.006 57.6001 121.006 56.913C121.006 56.4621 120.888 56.0649 120.652 55.7213C120.437 55.3778 120.126 55.0879 119.718 54.8518C119.331 54.5941 118.87 54.3687 118.333 54.1754C117.818 53.9822 117.27 53.8212 116.691 53.6923C116.111 53.542 115.51 53.4239 114.887 53.3381C113.62 53.1234 112.493 52.8335 111.505 52.4685C110.518 52.1035 109.68 51.6419 108.993 51.0836C108.328 50.5254 107.823 49.8812 107.479 49.1512C107.136 48.3997 106.964 47.5409 106.964 46.5747C106.964 45.63 107.179 44.7604 107.608 43.966C108.059 43.1716 108.671 42.4952 109.444 41.937C110.238 41.3573 111.162 40.9171 112.214 40.6165C113.266 40.2945 114.404 40.1334 115.628 40.1334C116.937 40.1334 118.129 40.2837 119.203 40.5843C120.276 40.8849 121.232 41.3358 122.069 41.937C122.906 42.5167 123.604 43.236 124.162 44.0948L121.779 46.5747C121.285 45.8447 120.716 45.2328 120.072 44.7389C119.428 44.2451 118.72 43.8801 117.947 43.6439C117.195 43.3863 116.39 43.2574 115.531 43.2574C114.565 43.2574 113.706 43.3863 112.955 43.6439C112.225 43.9016 111.645 44.2666 111.215 44.7389C110.786 45.1898 110.571 45.7373 110.571 46.3815C110.571 46.8753 110.689 47.3155 110.926 47.7019C111.162 48.0884 111.505 48.4319 111.956 48.7325C112.407 49.0117 112.987 49.2586 113.695 49.4733C114.404 49.6665 115.209 49.8383 116.111 49.9886C117.335 50.2033 118.462 50.4824 119.492 50.826C120.545 51.148 121.446 51.556 122.198 52.0498C122.971 52.5222 123.561 53.1019 123.969 53.789C124.399 54.476 124.613 55.2812 124.613 56.2044C124.613 57.643 124.238 58.899 123.486 59.9726C122.735 61.0461 121.672 61.8728 120.298 62.4525C118.945 63.0322 117.335 63.3221 115.467 63.3221Z" fill="#239F21"/>
</svg>
